<!DOCTYPE svg PUBLIC "-//W3C//DTD SVG 1.1//EN" "http://www.w3.org/Graphics/SVG/1.1/DTD/svg11.dtd">

<!-- Uploaded to: SVG Repo, www.svgrepo.com, Transformed by: SVG Repo Mixer Tools -->
<svg viewBox="-12.24 -12.24 48.48 48.48" fill="none" xmlns="http://www.w3.org/2000/svg" transform="rotate(0)">

<g id="SVGRepo_bgCarrier" stroke-width="0" transform="translate(0,0), scale(1)">

<path transform="translate(-12.24, -12.24), scale(1.5150000000000001)" d="M16,27.608231170102954C18.34846290337061,27.911821350689156,21.306917260366845,28.492885680289323,22.906634859501935,26.74693361643598C24.595133950323522,24.904084307265205,22.384314423296473,21.661800061944156,23.49838567942597,19.424397998772996C24.68158391152198,17.048167438055277,29.350335663472222,16.752106048532287,29.20309450513615,14.10168159659712C29.061887290007885,11.559871548408086,25.033661005489108,11.452404211384499,22.972507270908306,9.958288057565586C21.482325739734986,8.878065723591316,20.353011867414136,7.493664215580802,18.776643894495628,6.543619321576486C16.70996732458363,5.298075415245964,14.747898881090215,3.3288592454433616,12.345389788997634,3.5535406412748785C9.895796515705564,3.7826253251473454,7.4205738679916475,5.451395111998314,6.420336929326135,7.699174697160469C5.435397982789814,9.912575913485487,7.363538307538678,12.33505637803014,7.359660385814797,14.757706710735265C7.356552006901967,16.699601298490045,5.893623749071596,18.50945449809017,6.400032152665945,20.384158416243594C6.934637196071047,22.363245181831598,8.514876931091752,23.865594273686558,10.15291820137788,25.0982368719279C11.88272269226101,26.39993222037249,13.853001560141013,27.33068467654771,16,27.608231170102954" fill="#83d297" strokewidth="0"/>

</g>

<g id="SVGRepo_tracerCarrier" stroke-linecap="round" stroke-linejoin="round" stroke="#CCCCCC" stroke-width="0.048"/>

<g id="SVGRepo_iconCarrier"> <path d="M12 6H12.01M9 20L3 17V4L5 5M9 20L15 17M9 20V14M15 17L21 20V7L19 6M15 17V14M15 6.2C15 7.96731 13.5 9.4 12 11C10.5 9.4 9 7.96731 9 6.2C9 4.43269 10.3431 3 12 3C13.6569 3 15 4.43269 15 6.2Z" stroke="#3a60bb" stroke-width="2" stroke-linecap="round" stroke-linejoin="round"/> </g>

</svg>