<svg width="300" height="59" viewBox="0 0 300 59" fill="none" xmlns="http://www.w3.org/2000/svg">
<path d="M118.905 44.4774H0V45.7568H118.905V44.4774Z" fill="#ffffff"/>
<path d="M300 44.4774H181.095V45.7568H300V44.4774Z" fill="#ffffff"/>
<g clip-path="url(#clip0_3_2)">
<path fill-rule="evenodd" clip-rule="evenodd" d="M158.339 37.6611C160.683 40.0059 162 42.6298 162 45.9445H153.63C153.358 43.9056 151.613 42.3334 149.5 42.3334C147.388 42.3334 145.641 43.9056 145.37 45.9445H137C137 42.6295 138.317 40.0059 140.661 37.6611C143.006 35.3173 146.185 34 149.5 34C152.815 34 155.994 35.3173 158.339 37.6611ZM149.5 50.6667C147.387 50.6667 145.641 49.0945 145.37 47.0556H137C137 50.3706 138.317 52.9942 140.661 55.3389C143.006 57.6828 146.185 59 149.5 59C152.815 59 155.994 57.6828 158.339 55.3389C160.683 52.9942 162 50.3703 162 47.0556H153.63C153.358 49.0945 151.613 50.6667 149.5 50.6667ZM149.5 49.5556C151.187 49.5556 152.556 48.1873 152.556 46.5C152.556 44.8128 151.187 43.4445 149.5 43.4445C147.813 43.4445 146.444 44.8128 146.444 46.5C146.444 48.1873 147.813 49.5556 149.5 49.5556Z" fill="#ffffff"/>
</g>
<path d="M10.7249 32.482C10.7249 33.0677 10.9746 33.519 11.4738 33.8262C11.9731 34.1335 12.6644 34.2775 13.5478 34.2775C14.4887 34.2775 15.2088 34.0567 15.6889 33.615C16.169 33.1733 16.409 32.434 16.409 31.397C16.409 30.8305 16.3706 30.168 16.3034 29.4287C16.2458 28.6894 16.1786 27.9501 16.1114 27.1916C16.0538 26.433 15.9866 25.7033 15.9193 25.012C15.8521 24.3207 15.8233 23.7446 15.8233 23.2837C15.8233 22.602 16.1498 22.1988 16.7931 22.0931C19.1071 21.6323 21.2674 20.989 23.2741 20.1632C25.2904 19.3375 27.0379 18.3773 28.5262 17.2636C30.0144 16.1594 31.1858 14.94 32.0307 13.6054C32.8853 12.2804 33.3077 10.8881 33.3077 9.42871C33.3077 8.1325 32.9525 6.93231 32.2324 5.83773C31.5122 4.73356 30.5137 3.78301 29.2463 2.98608C27.9885 2.17955 26.481 1.55545 24.7432 1.09457C23.0053 0.643302 21.1138 0.422468 19.0687 0.422468C16.1978 0.422468 13.5958 0.672107 11.253 1.17139C8.90062 1.67067 6.9035 2.36198 5.24244 3.26452C3.57177 4.15747 2.28517 5.23284 1.37302 6.50024C0.460874 7.76764 0 9.17907 0 10.7249C0 11.8387 0.24964 12.6836 0.74892 13.2597C1.2482 13.8454 1.84349 14.1335 2.55401 14.1335C3.54297 14.1335 4.28229 13.9798 4.76236 13.663C5.24244 13.3557 5.57849 12.9621 5.75132 12.5012C5.92415 12.0403 6.01056 11.541 6.00096 10.9938C5.99136 10.4465 6.00096 9.94719 6.02976 9.47672C6.05857 9.01584 6.15458 8.63178 6.33701 8.31493C6.50984 8.00768 6.8747 7.84446 7.43159 7.84446C8.01728 7.84446 8.43975 8.18051 8.69899 8.84302C8.95823 9.50552 9.15986 10.5521 9.31349 11.9731C9.3999 12.9717 9.49592 14.0855 9.60154 15.3145C9.70715 16.5434 9.81277 17.8109 9.91839 19.1263C10.0336 20.4321 10.1296 21.7571 10.2256 23.0917C10.3217 24.4167 10.3985 25.6745 10.4753 26.8555C10.5521 28.0365 10.6097 29.1215 10.6577 30.1008C10.7057 31.0802 10.7249 31.8675 10.7249 32.482ZM27.5756 10.2256C27.5756 10.7249 27.374 11.253 26.9803 11.7907C26.5771 12.338 26.049 12.8757 25.3961 13.4037C24.7432 13.9318 24.0038 14.4311 23.1781 14.9016C22.362 15.3721 21.517 15.7849 20.6625 16.1498C19.7984 16.505 18.963 16.7931 18.1469 17.0043C17.3404 17.2156 16.6203 17.3212 15.9866 17.3212C15.7657 17.3212 15.6025 17.2348 15.5065 17.0427C15.4009 16.8603 15.3241 16.4858 15.2664 15.9097C15.1608 15.132 15.0552 14.2583 14.9496 13.2885C14.844 12.3188 14.748 11.397 14.6615 10.5041C14.5655 9.62074 14.4887 8.84302 14.4407 8.16131C14.3831 7.4892 14.3543 7.05713 14.3543 6.8747C14.3543 6.59626 14.4023 6.37542 14.5079 6.19299C14.6039 6.02016 14.7864 5.87614 15.0456 5.77052C15.3048 5.65531 15.6505 5.57849 16.0826 5.53049C16.5242 5.48248 17.0619 5.46328 17.7052 5.46328C19.0206 5.46328 20.2688 5.58809 21.4594 5.84734C22.65 6.10658 23.7062 6.46183 24.6087 6.90351C25.5113 7.34518 26.2314 7.85406 26.7691 8.43015C27.3068 8.99664 27.5756 9.60154 27.5756 10.2256ZM48.1613 32.7604C50.6385 32.7604 52.9429 32.338 55.0936 31.5122C57.2348 30.6769 59.0975 29.5439 60.6721 28.1037C62.2564 26.6635 63.495 24.9544 64.3975 22.9861C65.3096 21.0274 65.7609 18.9054 65.7609 16.6299C65.7609 14.5943 65.3961 12.77 64.6759 11.1474C63.9558 9.51512 62.9285 8.1325 61.5843 6.99952C60.2496 5.86654 58.627 4.9928 56.7067 4.3783C54.796 3.7734 52.6548 3.46616 50.264 3.46616C48.3245 3.46616 46.433 3.64858 44.5895 4.00384C42.7364 4.3687 41.085 4.83917 39.6255 5.42487C38.1661 6.00096 36.9947 6.67307 36.1114 7.41239C35.2184 8.16131 34.7768 8.92943 34.7768 9.70715C34.7768 9.95679 34.8248 10.1968 34.9208 10.3985C35.0072 10.6001 35.1128 10.7921 35.2184 10.9746C35.3337 11.1666 35.4297 11.3394 35.5257 11.5026C35.6217 11.6659 35.6601 11.8483 35.6601 12.0307C35.6601 12.1747 35.5929 12.4244 35.4393 12.7796C35.1128 13.663 34.844 14.6231 34.6519 15.6505C34.4599 16.6683 34.3639 17.7436 34.3639 18.8478C34.3639 20.9025 34.7 22.7748 35.3913 24.4743C36.073 26.1738 37.0235 27.6332 38.2429 28.8622C39.4623 30.0912 40.9121 31.0514 42.602 31.7331C44.2919 32.4148 46.145 32.7604 48.1613 32.7604ZM60.192 17.7148C60.192 19.1743 59.9232 20.5185 59.3855 21.7475C58.8478 22.9669 58.1085 24.0326 57.1579 24.916C56.1978 25.7993 55.0648 26.4906 53.7302 26.9803C52.4052 27.47 50.9457 27.71 49.3519 27.71C47.9693 27.71 46.7019 27.47 45.5401 26.9803C44.3879 26.4906 43.3989 25.8089 42.5636 24.9256C41.7283 24.0518 41.085 22.9957 40.6241 21.7667C40.1632 20.5377 39.9328 19.1935 39.9328 17.7148C39.9328 14.6615 40.7009 12.3668 42.2468 10.8209C43.7926 9.28469 46.0874 8.50696 49.1311 8.50696C50.8689 8.50696 52.4244 8.7182 53.7974 9.13106C55.18 9.55353 56.3322 10.1488 57.2828 10.9362C58.2237 11.7235 58.9438 12.6836 59.4431 13.8358C59.9424 14.9784 60.192 16.2746 60.192 17.7148ZM94.1911 3.08209C94.1911 2.65963 94.1046 2.25636 93.9414 1.8723C93.7782 1.49784 93.5478 1.17139 93.2597 0.892943C92.9717 0.614499 92.6356 0.393663 92.2516 0.240038C91.8579 0.0864138 91.445 0 91.0034 0C89.8896 0 88.7374 0.326452 87.5276 0.969755C86.3178 1.62266 85.108 2.53481 83.9078 3.70619C82.7076 4.87758 81.5362 6.28901 80.3937 7.94047C79.2415 9.59194 78.1949 11.4162 77.2348 13.4133C77.0811 13.6726 76.9563 13.8646 76.8603 13.999C76.7547 14.1239 76.6299 14.1911 76.4858 14.1911C76.313 14.1911 76.1498 14.047 75.9673 13.759C75.7945 13.4806 75.6217 13.1061 75.4393 12.6548C75.2664 12.2036 75.084 11.6947 74.9016 11.1282C74.7192 10.5617 74.5367 10.0048 74.3447 9.45751C74.1623 8.90063 73.9702 8.37254 73.7686 7.89246C73.567 7.40278 73.3557 7.00912 73.1253 6.71147C72.6644 6.07777 72.2132 5.6073 71.7715 5.30005C71.3298 4.9832 70.7249 4.82957 69.9664 4.82957C69.6015 4.82957 69.2463 4.86798 68.9006 4.96399C68.5646 5.06001 68.2573 5.18483 67.9981 5.34806C67.7484 5.52088 67.5372 5.70331 67.3932 5.92415C67.2492 6.13538 67.1723 6.35622 67.1723 6.59626C67.1723 6.8747 67.2011 7.15314 67.2684 7.41239C67.3356 7.68123 67.4412 7.97888 67.5852 8.28613C68.1805 9.72636 68.747 11.2338 69.2943 12.8085C69.832 14.3735 70.3409 15.9674 70.8113 17.5708C71.2818 19.1839 71.7235 20.7873 72.1171 22.3908C72.5108 24.0038 72.8564 25.5785 73.1253 27.1339C73.2981 28.1517 73.9222 28.6606 75.0168 28.6606C76.0634 28.6606 76.8891 28.4206 77.494 27.9501C78.0989 27.4796 78.4445 26.7499 78.531 25.7705C78.6078 24.9064 78.723 24.1095 78.8958 23.3797C79.059 22.65 79.2703 22.0163 79.5199 21.4786C79.7696 20.941 80.0384 20.5281 80.3457 20.2208C80.6529 19.9136 80.9698 19.76 81.3058 19.76C81.7283 19.76 82.362 19.904 83.2069 20.1728C84.0422 20.4513 85.012 20.7969 86.1162 21.2002C87.2108 21.6131 88.3917 22.0547 89.6495 22.5444C90.8977 23.0341 92.1555 23.4854 93.4133 23.8886C94.6711 24.3015 95.8809 24.6375 97.0619 24.916C98.2333 25.1944 99.2799 25.3289 100.202 25.3289C100.595 25.3289 100.97 25.252 101.354 25.0792C101.728 24.916 102.064 24.6952 102.362 24.4263C102.66 24.1671 102.9 23.8502 103.072 23.5046C103.245 23.1493 103.332 22.794 103.332 22.4196C103.332 21.4594 102.688 20.8065 101.392 20.4513C98.8094 19.8464 96.4762 19.2703 94.4119 18.723C92.338 18.1757 90.5809 17.6476 89.1215 17.1291C87.662 16.6107 86.5386 16.0922 85.7609 15.5737C84.9928 15.0648 84.5991 14.5271 84.5991 13.9702C84.5991 13.3077 84.8392 12.674 85.3096 12.0883C85.7801 11.493 86.3658 10.9169 87.0859 10.3409C87.7964 9.76476 88.5646 9.20787 89.3999 8.65099C90.2256 8.0941 90.9938 7.5276 91.7139 6.93231C92.4244 6.33701 93.0101 5.73212 93.4806 5.09842C93.951 4.47432 94.1911 3.80221 94.1911 3.08209ZM102.64 22.4772C102.9 22.4772 103.14 22.6884 103.361 23.1109C104.004 24.5511 104.839 25.7801 105.857 26.7883C106.875 27.7964 108.084 28.6126 109.486 29.2367C110.888 29.8704 112.482 30.3217 114.249 30.6097C116.025 30.8977 117.984 31.0418 120.125 31.0418C121.959 31.0418 123.773 30.8977 125.588 30.6097C127.393 30.3217 129.025 29.8896 130.466 29.3039C131.906 28.7278 133.068 27.9885 133.97 27.1051C134.863 26.2218 135.314 25.1656 135.314 23.9462C135.314 23.4854 135.228 23.0341 135.046 22.5924C134.873 22.1411 134.623 21.7571 134.297 21.4114C133.98 21.0658 133.596 20.7873 133.154 20.5761C132.703 20.3649 132.223 20.2592 131.685 20.2592C131.253 20.2592 130.84 20.3457 130.418 20.5281C130.005 20.7009 129.64 20.9314 129.313 21.2194C128.987 21.5074 128.728 21.8243 128.526 22.1892C128.325 22.5444 128.219 22.9093 128.219 23.2837C128.219 23.543 128.286 23.783 128.43 24.0038C128.565 24.2247 128.632 24.4359 128.632 24.6375C128.632 24.8584 128.459 25.0504 128.123 25.204C127.777 25.3673 127.345 25.4921 126.817 25.5977C126.289 25.6937 125.703 25.7705 125.041 25.8281C124.388 25.8857 123.754 25.9242 123.13 25.953C122.516 25.9818 121.949 26.001 121.431 26.001H120.24C119.587 26.001 118.886 25.953 118.128 25.8569C117.379 25.7705 116.601 25.6457 115.814 25.4825C115.036 25.3289 114.277 25.1272 113.548 24.8872C112.818 24.6471 112.156 24.3783 111.579 24.0807C110.994 23.7926 110.514 23.4662 110.139 23.1109C109.755 22.7652 109.554 22.3812 109.515 21.9779C109.515 21.8723 109.563 21.7763 109.669 21.6995C109.765 21.6323 110.072 21.5266 110.571 21.3922C111.119 21.2674 111.839 21.0946 112.712 20.8833C113.596 20.6721 114.537 20.4513 115.554 20.2208C116.572 19.9904 117.609 19.7504 118.656 19.5103C119.712 19.2703 120.691 19.0494 121.594 18.8382C122.496 18.6174 123.284 18.435 123.946 18.2813C124.618 18.1181 125.06 18.0029 125.281 17.9357C126.116 17.7148 126.692 17.3788 127.009 16.9179C127.336 16.4666 127.499 15.977 127.499 15.4393C127.499 15.3433 127.489 15.2664 127.47 15.1896C127.451 15.1128 127.441 15.036 127.441 14.94C127.355 14.3639 127.172 13.8934 126.903 13.5094C126.635 13.1349 126.241 12.9429 125.723 12.9429C125.377 12.9429 124.762 13.0389 123.898 13.2213C123.024 13.4037 122.016 13.6342 120.874 13.903C119.731 14.1719 118.512 14.4599 117.235 14.7864C115.948 15.1128 114.719 15.4105 113.548 15.6697C112.376 15.9386 111.32 16.169 110.389 16.3514C109.458 16.5338 108.766 16.6299 108.325 16.6299C108.132 16.6299 107.988 16.5434 107.883 16.3706C107.768 16.1882 107.681 15.9674 107.614 15.6889C107.547 15.4105 107.508 15.1032 107.489 14.7768C107.47 14.4407 107.46 14.1143 107.46 13.807V12.6644C107.46 12.4052 107.528 12.2036 107.652 12.0403C107.787 11.8867 107.979 11.7907 108.238 11.7523C110.12 11.493 112.021 11.2338 113.922 10.9746C115.823 10.7153 117.715 10.4273 119.597 10.1008C121.488 9.78397 123.351 9.41911 125.214 9.02544C127.067 8.62218 128.91 8.16131 130.744 7.62362C131.483 7.38358 132.012 7.05713 132.338 6.64426C132.655 6.2218 132.818 5.78013 132.818 5.30005C132.818 5.0216 132.808 4.72396 132.78 4.3975C132.751 4.07105 132.684 3.78301 132.568 3.52376C132.463 3.26452 132.29 3.04369 132.06 2.87086C131.829 2.69803 131.512 2.61162 131.128 2.61162C130.85 2.61162 130.523 2.65963 130.158 2.74604C128.958 3.04369 127.614 3.35094 126.135 3.65819C124.666 3.97504 123.149 4.28229 121.594 4.58954C120.048 4.89678 118.512 5.17523 117.014 5.43447C115.506 5.69371 114.124 5.92415 112.885 6.12578C111.637 6.32741 110.571 6.49064 109.678 6.59626C108.795 6.71148 108.2 6.76908 107.902 6.76908C107.739 6.76908 107.576 6.73068 107.422 6.65387C107.268 6.57705 107.086 6.49064 106.894 6.39462C106.702 6.28901 106.471 6.20259 106.212 6.12578C105.953 6.05857 105.636 6.02016 105.242 6.02016C104.301 6.02016 103.543 6.15459 102.957 6.42343C102.381 6.68267 101.93 7.01872 101.603 7.41239C101.277 7.81565 101.066 8.23812 100.96 8.68939C100.864 9.14066 100.816 9.54393 100.816 9.89918C100.816 10.2832 100.855 10.6097 100.951 10.8689C101.047 11.1282 101.152 11.3586 101.267 11.5699C101.392 11.7811 101.498 11.9731 101.603 12.1459C101.699 12.3092 101.767 12.482 101.786 12.6644C101.834 13.5766 101.882 14.3639 101.911 15.036C101.93 15.7081 101.949 16.3418 101.949 16.9371C101.949 17.1579 101.891 17.3308 101.767 17.446C101.651 17.5708 101.488 17.6764 101.287 17.7628C100.614 18.0605 100.125 18.435 99.8176 18.8766C99.5007 19.3183 99.3471 19.7792 99.3471 20.2592C99.3471 20.9794 99.5391 21.5555 99.9232 21.9971C100.317 22.4292 100.768 22.6404 101.287 22.6404C101.354 22.6404 101.459 22.6308 101.584 22.6116C101.719 22.602 101.853 22.5828 101.988 22.5636C102.132 22.5444 102.256 22.5252 102.381 22.506C102.496 22.4868 102.583 22.4772 102.64 22.4772ZM160.807 3.08209C160.807 2.65963 160.72 2.25636 160.557 1.8723C160.394 1.49784 160.163 1.17139 159.875 0.892943C159.587 0.614499 159.251 0.393663 158.867 0.240038C158.483 0.0864138 158.06 0 157.619 0C156.515 0 155.353 0.326452 154.143 0.969755C152.933 1.62266 151.723 2.53481 150.523 3.70619C149.323 4.87758 148.152 6.28901 147.009 7.94047C145.857 9.59194 144.81 11.4162 143.85 13.4133C143.697 13.6726 143.572 13.8646 143.476 13.999C143.37 14.1239 143.245 14.1911 143.101 14.1911C142.928 14.1911 142.765 14.047 142.583 13.759C142.41 13.4806 142.237 13.1061 142.064 12.6548C141.882 12.2036 141.709 11.6947 141.517 11.1282C141.335 10.5617 141.152 10.0048 140.97 9.45751C140.778 8.90063 140.586 8.37254 140.384 7.89246C140.182 7.40278 139.971 7.00912 139.75 6.71147C139.28 6.07777 138.829 5.6073 138.387 5.30005C137.945 4.9832 137.34 4.82957 136.591 4.82957C136.217 4.82957 135.862 4.86798 135.516 4.96399C135.18 5.06001 134.882 5.18483 134.623 5.34806C134.364 5.52088 134.162 5.70331 134.009 5.92415C133.865 6.13538 133.788 6.35622 133.788 6.59626C133.788 6.8747 133.817 7.15314 133.884 7.41239C133.951 7.68123 134.057 7.97888 134.201 8.28613C134.796 9.72636 135.362 11.2338 135.91 12.8085C136.457 14.3735 136.966 15.9674 137.436 17.5708C137.907 19.1839 138.339 20.7873 138.733 22.3908C139.136 24.0038 139.472 25.5785 139.75 27.1339C139.914 28.1517 140.538 28.6606 141.632 28.6606C142.679 28.6606 143.514 28.4206 144.109 27.9501C144.714 27.4796 145.06 26.7499 145.146 25.7705C145.223 24.9064 145.348 24.1095 145.511 23.3797C145.675 22.65 145.886 22.0163 146.135 21.4786C146.385 20.941 146.663 20.5281 146.961 20.2208C147.268 19.9136 147.585 19.76 147.921 19.76C148.344 19.76 148.977 19.904 149.822 20.1728C150.658 20.4513 151.627 20.7969 152.732 21.2002C153.826 21.6131 155.007 22.0547 156.265 22.5444C157.513 23.0341 158.771 23.4854 160.029 23.8886C161.287 24.3015 162.506 24.6375 163.677 24.916C164.849 25.1944 165.895 25.3289 166.817 25.3289C167.211 25.3289 167.595 25.252 167.969 25.0792C168.344 24.916 168.689 24.6952 168.977 24.4263C169.275 24.1671 169.515 23.8502 169.688 23.5046C169.861 23.1493 169.947 22.794 169.947 22.4196C169.947 21.4594 169.304 20.8065 168.008 20.4513C165.425 19.8464 163.101 19.2703 161.027 18.723C158.963 18.1757 157.196 17.6476 155.737 17.1291C154.277 16.6107 153.154 16.0922 152.386 15.5737C151.608 15.0648 151.215 14.5271 151.215 13.9702C151.215 13.3077 151.455 12.674 151.925 12.0883C152.396 11.493 152.991 10.9169 153.701 10.3409C154.412 9.76476 155.18 9.20787 156.015 8.65099C156.841 8.0941 157.619 7.5276 158.329 6.93231C159.04 6.33701 159.626 5.73212 160.096 5.09842C160.566 4.47432 160.807 3.80221 160.807 3.08209ZM180.202 32.7604C182.679 32.7604 184.993 32.338 187.134 31.5122C189.275 30.6769 191.138 29.5439 192.712 28.1037C194.297 26.6635 195.535 24.9544 196.438 22.9861C197.35 21.0274 197.801 18.9054 197.801 16.6299C197.801 14.5943 197.436 12.77 196.716 11.1474C195.996 9.51512 194.969 8.1325 193.634 6.99952C192.29 5.86654 190.667 4.9928 188.757 4.3783C186.836 3.7734 184.695 3.46616 182.314 3.46616C180.374 3.46616 178.473 3.64858 176.63 4.00384C174.786 4.3687 173.125 4.83917 171.666 5.42487C170.206 6.00096 169.035 6.67307 168.152 7.41239C167.259 8.16131 166.817 8.92943 166.817 9.70715C166.817 9.95679 166.865 10.1968 166.961 10.3985C167.048 10.6001 167.153 10.7921 167.259 10.9746C167.374 11.1666 167.48 11.3394 167.566 11.5026C167.662 11.6659 167.71 11.8483 167.71 12.0307C167.71 12.1747 167.633 12.4244 167.489 12.7796C167.153 13.663 166.884 14.6231 166.692 15.6505C166.5 16.6683 166.404 17.7436 166.404 18.8478C166.404 20.9025 166.75 22.7748 167.432 24.4743C168.113 26.1738 169.064 27.6332 170.283 28.8622C171.503 30.0912 172.962 31.0514 174.652 31.7331C176.342 32.4148 178.195 32.7604 180.202 32.7604ZM192.232 17.7148C192.232 19.1743 191.964 20.5185 191.426 21.7475C190.888 22.9669 190.149 24.0326 189.198 24.916C188.248 25.7993 187.105 26.4906 185.771 26.9803C184.445 27.47 182.986 27.71 181.392 27.71C180.01 27.71 178.742 27.47 177.59 26.9803C176.428 26.4906 175.439 25.8089 174.604 24.9256C173.778 24.0518 173.125 22.9957 172.664 21.7667C172.204 20.5377 171.973 19.1935 171.973 17.7148C171.973 14.6615 172.741 12.3668 174.287 10.8209C175.833 9.28469 178.128 8.50696 181.171 8.50696C182.909 8.50696 184.465 8.7182 185.847 9.13106C187.22 9.55353 188.382 10.1488 189.323 10.9362C190.264 11.7235 190.984 12.6836 191.483 13.8358C191.983 14.9784 192.232 16.2746 192.232 17.7148ZM209.16 8.28613C209.822 8.00768 210.533 7.74844 211.272 7.4892C212.012 7.22996 212.751 6.99952 213.509 6.78829C214.268 6.58665 215.036 6.43303 215.795 6.30821C216.563 6.18339 217.302 6.12578 218.003 6.12578C218.723 6.12578 219.318 6.18339 219.789 6.29861C220.259 6.40422 220.634 6.55785 220.912 6.76908C221.191 6.97072 221.373 7.21076 221.479 7.4892C221.584 7.76764 221.632 8.06529 221.632 8.40134C221.632 8.93903 221.411 9.50552 220.97 10.12C220.518 10.7249 219.942 11.349 219.232 11.9731C218.521 12.6068 217.724 13.2309 216.822 13.855C215.929 14.4887 215.026 15.084 214.105 15.6505C213.193 16.2074 212.319 16.7259 211.474 17.1868C210.638 17.6476 209.918 18.0317 209.333 18.3485C209.121 18.4446 208.949 18.5118 208.805 18.5598C208.651 18.5982 208.526 18.627 208.411 18.627C208.027 18.627 207.758 18.3005 207.614 17.6572C207.336 16.3418 207.019 15.0168 206.683 13.663C206.337 12.3188 205.972 10.9265 205.588 9.47672C205.29 8.35334 204.647 7.78685 203.649 7.78685C203.572 7.78685 203.495 7.79645 203.409 7.81565C203.332 7.83485 203.207 7.87326 203.053 7.91167C202.89 7.95967 202.688 8.01728 202.439 8.0941C202.189 8.17091 201.872 8.26692 201.488 8.40134C200.432 8.747 199.904 9.41911 199.904 10.3985C199.904 10.5041 199.914 10.6289 199.923 10.7729C199.933 10.9073 199.962 11.0706 200.019 11.253C200.903 14.5079 201.69 17.7628 202.391 21.037C203.082 24.3111 203.649 27.6236 204.09 30.9842C204.253 32.242 204.849 32.8661 205.867 32.8661C206.03 32.8661 206.183 32.8565 206.337 32.8277C206.481 32.7988 206.654 32.7604 206.836 32.7028L208.084 32.3188C209.208 31.9059 209.774 31.1858 209.774 30.1488C209.774 29.88 209.746 29.5247 209.688 29.0831C209.63 28.651 209.563 28.1997 209.477 27.71C209.4 27.23 209.313 26.7691 209.227 26.3178C209.15 25.8665 209.083 25.5017 209.025 25.2232C209.025 25.1272 209.016 25.0408 208.997 24.9544C208.977 24.8776 208.968 24.8008 208.968 24.7528C208.968 24.5511 209.006 24.4167 209.093 24.3495C209.179 24.2823 209.294 24.2535 209.438 24.2535C209.582 24.2535 209.87 24.3111 210.302 24.4167C211.483 24.7912 212.76 25.1944 214.153 25.6457C215.535 26.1066 216.947 26.5771 218.377 27.0667C219.808 27.5564 221.21 28.0461 222.592 28.5454C223.965 29.0446 225.252 29.5247 226.452 29.9856C226.855 30.1008 227.201 30.1488 227.48 30.1488C228.277 30.1488 228.939 29.7552 229.477 28.9582C229.736 28.651 229.966 28.3053 230.178 27.9213C230.389 27.5468 230.494 27.1723 230.494 26.7979C230.494 26.0202 230.005 25.4537 229.006 25.0792C226.875 24.3207 224.782 23.639 222.708 23.0341C220.643 22.4196 218.617 21.7667 216.639 21.0658C216.073 20.8449 215.785 20.5377 215.785 20.1536C215.785 19.8176 216.054 19.4911 216.591 19.1839C217.216 18.8478 217.916 18.4542 218.694 18.0029C219.472 17.5516 220.259 17.0427 221.047 16.4954C221.843 15.9386 222.621 15.3241 223.38 14.6615C224.138 13.999 224.81 13.2981 225.396 12.5588C225.991 11.8195 226.471 11.0418 226.827 10.2256C227.192 9.41911 227.364 8.56457 227.364 7.68123C227.364 6.42343 227.134 5.37686 226.673 4.55113C226.212 3.71579 225.617 3.05329 224.878 2.55401C224.138 2.05473 223.303 1.69947 222.362 1.49784C221.431 1.29621 220.49 1.20019 219.53 1.20019C217.475 1.20019 215.439 1.44023 213.433 1.92031C211.416 2.40038 209.438 3.02449 207.499 3.80221C206.519 4.22468 206.03 4.86798 206.03 5.74172C206.03 5.88574 206.049 6.05857 206.068 6.241C206.097 6.42343 206.164 6.65386 206.251 6.93231C206.587 7.98848 207.192 8.50696 208.084 8.50696C208.43 8.50696 208.795 8.43975 209.16 8.28613ZM233.164 22.4772C233.413 22.4772 233.653 22.6884 233.884 23.1109C234.527 24.5511 235.362 25.7801 236.371 26.7883C237.388 27.7964 238.598 28.6126 240 29.2367C241.411 29.8704 242.996 30.3217 244.772 30.6097C246.548 30.8977 248.497 31.0418 250.648 31.0418C252.472 31.0418 254.297 30.8977 256.102 30.6097C257.916 30.3217 259.539 29.8896 260.979 29.3039C262.42 28.7278 263.591 27.9885 264.484 27.1051C265.386 26.2218 265.828 25.1656 265.828 23.9462C265.828 23.4854 265.742 23.0341 265.569 22.5924C265.396 22.1411 265.146 21.7571 264.82 21.4114C264.494 21.0658 264.109 20.7873 263.668 20.5761C263.226 20.3649 262.736 20.2592 262.199 20.2592C261.776 20.2592 261.354 20.3457 260.941 20.5281C260.528 20.7009 260.154 20.9314 259.827 21.2194C259.51 21.5074 259.241 21.8243 259.04 22.1892C258.838 22.5444 258.733 22.9093 258.733 23.2837C258.733 23.543 258.809 23.783 258.944 24.0038C259.078 24.2247 259.155 24.4359 259.155 24.6375C259.155 24.8584 258.982 25.0504 258.637 25.204C258.301 25.3673 257.859 25.4921 257.34 25.5977C256.812 25.6937 256.217 25.7705 255.564 25.8281C254.911 25.8857 254.268 25.9242 253.653 25.953C253.029 25.9818 252.463 26.001 251.944 26.001H250.754C250.11 26.001 249.409 25.953 248.651 25.8569C247.892 25.7705 247.124 25.6457 246.337 25.4825C245.55 25.3289 244.791 25.1272 244.061 24.8872C243.332 24.6471 242.679 24.3783 242.093 24.0807C241.517 23.7926 241.037 23.4662 240.653 23.1109C240.278 22.7652 240.067 22.3812 240.029 21.9779C240.029 21.8723 240.086 21.7763 240.182 21.6995C240.288 21.6323 240.586 21.5266 241.085 21.3922C241.642 21.2674 242.352 21.0946 243.236 20.8833C244.109 20.6721 245.06 20.4513 246.068 20.2208C247.086 19.9904 248.123 19.7504 249.179 19.5103C250.226 19.2703 251.205 19.0494 252.117 18.8382C253.02 18.6174 253.807 18.435 254.47 18.2813C255.132 18.1181 255.574 18.0029 255.795 17.9357C256.63 17.7148 257.206 17.3788 257.532 16.9179C257.859 16.4666 258.012 15.977 258.012 15.4393C258.012 15.3433 258.003 15.2664 257.984 15.1896C257.974 15.1128 257.964 15.036 257.964 14.94C257.868 14.3639 257.686 13.8934 257.417 13.5094C257.148 13.1349 256.764 12.9429 256.246 12.9429C255.891 12.9429 255.286 13.0389 254.412 13.2213C253.548 13.4037 252.54 13.6342 251.397 13.903C250.245 14.1719 249.035 14.4599 247.748 14.7864C246.462 15.1128 245.233 15.4105 244.061 15.6697C242.89 15.9386 241.834 16.169 240.903 16.3514C239.971 16.5338 239.28 16.6299 238.838 16.6299C238.656 16.6299 238.512 16.5434 238.397 16.3706C238.281 16.1882 238.195 15.9674 238.137 15.6889C238.07 15.4105 238.032 15.1032 238.012 14.7768C237.993 14.4407 237.984 14.1143 237.984 13.807V12.6644C237.984 12.4052 238.041 12.2036 238.176 12.0403C238.301 11.8867 238.502 11.7907 238.761 11.7523C240.643 11.493 242.535 11.2338 244.436 10.9746C246.337 10.7153 248.238 10.4273 250.12 10.1008C252.002 9.78397 253.874 9.41911 255.727 9.02544C257.59 8.62218 259.434 8.16131 261.258 7.62362C261.997 7.38358 262.525 7.05713 262.852 6.64426C263.178 6.2218 263.332 5.78013 263.332 5.30005C263.332 5.0216 263.322 4.72396 263.293 4.3975C263.265 4.07105 263.197 3.78301 263.092 3.52376C262.976 3.26452 262.804 3.04369 262.573 2.87086C262.343 2.69803 262.036 2.61162 261.642 2.61162C261.373 2.61162 261.047 2.65963 260.672 2.74604C259.472 3.04369 258.137 3.35094 256.659 3.65819C255.18 3.97504 253.663 4.28229 252.117 4.58954C250.562 4.89678 249.035 5.17523 247.528 5.43447C246.02 5.69371 244.647 5.92415 243.399 6.12578C242.151 6.32741 241.085 6.49064 240.202 6.59626C239.309 6.71148 238.723 6.76908 238.425 6.76908C238.262 6.76908 238.099 6.73068 237.936 6.65387C237.782 6.57705 237.609 6.49064 237.417 6.39462C237.216 6.28901 236.995 6.20259 236.735 6.12578C236.476 6.05857 236.15 6.02016 235.766 6.02016C234.825 6.02016 234.057 6.15459 233.481 6.42343C232.895 6.68267 232.444 7.01872 232.117 7.41239C231.8 7.81565 231.589 8.23812 231.483 8.68939C231.378 9.14066 231.33 9.54393 231.33 9.89918C231.33 10.2832 231.378 10.6097 231.464 10.8689C231.56 11.1282 231.666 11.3586 231.791 11.5699C231.906 11.7811 232.021 11.9731 232.117 12.1459C232.223 12.3092 232.28 12.482 232.3 12.6644C232.357 13.5766 232.396 14.3639 232.424 15.036C232.453 15.7081 232.463 16.3418 232.463 16.9371C232.463 17.1579 232.405 17.3308 232.29 17.446C232.165 17.5708 232.002 17.6764 231.8 17.7628C231.138 18.0605 230.648 18.435 230.331 18.8766C230.014 19.3183 229.861 19.7792 229.861 20.2592C229.861 20.9794 230.053 21.5555 230.446 21.9971C230.831 22.4292 231.282 22.6404 231.8 22.6404C231.877 22.6404 231.973 22.6308 232.108 22.6116C232.232 22.602 232.367 22.5828 232.511 22.5636C232.645 22.5444 232.78 22.5252 232.895 22.506C233.02 22.4868 233.106 22.4772 233.164 22.4772ZM265.828 23.783H266.193C266.635 23.783 266.855 24.0615 266.855 24.6375C266.855 24.7528 266.846 24.868 266.827 24.9832C266.807 25.108 266.779 25.2424 266.74 25.3865C266.635 25.7609 266.529 26.1354 266.423 26.5194C266.327 26.9131 266.231 27.2876 266.135 27.662C266.097 27.8061 266.068 27.9501 266.049 28.0749C266.03 28.1997 266.02 28.3245 266.02 28.4398C266.02 28.9678 266.183 29.4095 266.51 29.736C266.836 30.072 267.307 30.264 267.94 30.3217L268.795 30.4273H269.237C270.389 30.4273 271.119 29.8224 271.455 28.603L272.703 24.0326C272.904 23.2549 273.404 22.8325 274.201 22.7556C276.419 22.5348 278.627 22.3428 280.835 22.1892C283.044 22.0259 285.271 21.9011 287.528 21.8147C288.228 21.8147 288.795 22.1123 289.217 22.698C290.139 23.8982 291.051 25.108 291.944 26.3274C292.847 27.5468 293.74 28.7854 294.623 30.0432C294.882 30.3793 295.151 30.6385 295.439 30.8305C295.727 31.0226 296.035 31.1186 296.371 31.1186C296.611 31.1186 296.841 31.0802 297.072 30.9842C297.302 30.8881 297.552 30.7633 297.811 30.6001L298.857 29.8512C299.616 29.3519 300 28.7662 300 28.1037C300 27.662 299.827 27.1916 299.501 26.6923L296.534 22.6404C296.275 22.2372 296.15 21.8435 296.15 21.4498C296.15 21.3442 296.159 21.229 296.179 21.1234C296.188 21.0082 296.217 20.8833 296.255 20.7297L296.783 19.1839C296.841 19.0302 296.87 18.8862 296.879 18.7326C296.889 18.5886 296.899 18.4638 296.899 18.3485C296.899 17.8109 296.716 17.3884 296.351 17.0907C295.996 16.7835 295.487 16.6299 294.844 16.6299H293.26C292.895 16.6299 292.578 16.5627 292.309 16.4186C292.04 16.2842 291.791 16.073 291.551 15.7945C289.938 13.615 288.565 11.7619 287.412 10.216C286.27 8.67019 285.262 7.35478 284.398 6.2698C283.524 5.17523 282.746 4.28229 282.045 3.58137C281.335 2.88046 280.624 2.27556 279.904 1.77628C279.376 1.43063 278.829 1.2482 278.272 1.2482C277.849 1.2482 277.417 1.31541 276.985 1.43063C276.553 1.55545 276.14 1.70907 275.766 1.9011C275.382 2.09313 275.046 2.31397 274.758 2.55401C274.46 2.79405 274.229 3.02449 274.057 3.24532C273.673 3.78301 273.327 4.3687 273.02 5.0216C272.712 5.66491 272.453 6.31781 272.213 6.98992C271.983 7.65243 271.771 8.32453 271.579 8.99664C271.387 9.66875 271.195 10.3024 271.013 10.8977C270.658 11.9443 270.331 13.0101 270.014 14.0855C269.698 15.1512 269.39 16.217 269.073 17.2636C268.958 17.6572 268.785 17.9549 268.545 18.1661C268.305 18.3773 267.969 18.5118 267.547 18.5694L266.913 18.627C265.655 18.8478 265.002 19.6255 264.945 20.9506C264.906 21.3058 264.887 21.5362 264.887 21.6611V21.9779C264.887 22.554 264.964 22.9957 265.127 23.3125C265.281 23.6198 265.521 23.783 265.828 23.783ZM279.021 9.15027C279.856 10.1488 280.662 11.1474 281.45 12.1555C282.228 13.1637 283.015 14.1815 283.783 15.2184C284.013 15.5545 284.119 15.8329 284.119 16.073C284.119 16.3322 284.013 16.5434 283.802 16.6971C283.591 16.8603 283.293 16.9563 282.928 16.9947C281.824 17.0427 280.71 17.1195 279.606 17.1964C278.493 17.2828 277.388 17.398 276.275 17.542H275.996C275.276 17.542 274.921 17.206 274.921 16.5242V16.2746C274.921 16.1978 274.94 16.1114 274.978 16.025C275.324 14.9112 275.67 13.8262 276.015 12.7604C276.351 11.7043 276.716 10.6289 277.081 9.53433C277.264 8.89102 277.59 8.56457 278.051 8.56457C278.214 8.56457 278.377 8.62218 278.521 8.7374C278.665 8.84302 278.838 8.98704 279.021 9.15027Z" fill="#333333"/>
<defs>
<clipPath id="clip0_3_2">
<rect width="25" height="25" fill="white" transform="translate(137 34)"/>
</clipPath>
</defs>
</svg>
